<svg width="66" height="48" viewBox="0 0 66 48" fill="none" xmlns="http://www.w3.org/2000/svg">
<g clip-path="url(#clip0_26_236)">
<mask id="mask0_26_236" style="mask-type:luminance" maskUnits="userSpaceOnUse" x="0" y="0" width="66" height="48">
<path d="M66 0H0V48H66V0Z" fill="white"/>
</mask>
<g mask="url(#mask0_26_236)">
<path d="M36.9862 14.2864C36.8427 14.0592 36.7566 13.7752 36.7566 13.4911C36.7566 13.2071 36.8427 12.8379 36.9862 12.6107C37.7896 11.3041 39.1095 9.31602 40.3433 7.61187C41.4911 5.99294 40.9173 5.5101 40.4869 5.02726C40.0565 4.57282 39.6834 4.26039 39.2817 3.97637C38.22 3.26631 37.6461 4.374 37.6461 4.374C37.6461 4.374 33.2274 11.4178 32.5387 12.4118C32.2805 12.7811 32.1943 13.1219 32.1656 13.4627C32.1943 13.7752 32.2805 14.1444 32.5387 14.5136C33.2274 15.5077 37.7896 22.8071 37.7896 22.8071C37.7896 22.8071 38.3061 23.7728 39.2817 22.9491C39.7121 22.5799 40.0278 22.3243 40.4869 21.8982C40.9747 21.4722 41.5198 20.9041 40.3433 19.3136C39.1095 17.5811 37.7896 15.5929 36.9862 14.2864Z" fill="#A3B3CC"/>
<path d="M65.6514 14.2864C65.6514 14.258 65.6514 14.258 65.6514 14.2864C65.6227 13.8319 65.4793 13.3207 65.1062 12.8095C64.1307 11.4177 57.4163 0.681677 57.4163 0.681677C57.4163 0.681677 56.8424 -0.397613 55.5225 0.823689C54.9773 1.33493 55.3217 0.994104 54.7191 1.64736C54.0878 2.32901 53.5713 3.72073 55.2356 5.99292C57.0146 8.43552 58.851 11.2473 59.9988 13.0935C60.1996 13.4059 60.2857 13.8319 60.2857 14.2296C60.2857 14.2296 60.2857 14.2864 60.2857 14.3148C60.2857 14.3432 60.2857 14.3716 60.2857 14.4C60.2857 14.7976 60.1996 15.2237 59.9988 15.5361C58.851 17.4106 57.0146 20.1941 55.2356 22.6367C53.6 24.9089 54.0878 26.3006 54.7191 26.9822C55.3217 27.6355 54.9773 27.2947 55.5225 27.8059C56.8424 29.0272 57.4163 27.9479 57.4163 27.9479C57.4163 27.9479 64.1307 17.2118 65.1062 15.8201C65.4506 15.3089 65.6227 14.7976 65.6514 14.3432C65.6514 14.3148 65.6514 14.3148 65.6514 14.2864Z" fill="#A3B3CC"/>
<path d="M28.6651 24.6817H29.2103L31.2188 33.5148H31.2475L32.1657 29.1125L33.3135 24.0852H34.0882L31.5918 34.7645H30.8171L29.6981 29.8509L28.952 26.1302L28.206 29.7941L27.0582 34.7645H26.2835L23.7871 24.0852H24.5619L25.7096 29.1125L26.6278 33.5148H26.6565L28.6651 24.6817Z" fill="#A3B3CC"/>
<path d="M34.7769 31.839V29.6236C34.7769 27.3514 35.609 26.613 37.3594 26.613C39.1097 26.613 39.9418 27.2946 39.9418 29.652V31.8106C39.9418 34.0544 39.1097 34.8497 37.3594 34.8497C35.609 34.8781 34.7769 34.1964 34.7769 31.839ZM39.2531 31.8106V29.6804C39.2531 27.9479 38.9662 27.2662 37.3594 27.2662C35.8386 27.2662 35.4656 27.9479 35.4656 29.652V31.7822C35.4656 33.5148 35.7525 34.2248 37.3594 34.2248C38.8801 34.2248 39.2531 33.5148 39.2531 31.8106Z" fill="#A3B3CC"/>
<path d="M42.4669 26.6131L42.4956 27.5788C42.8399 26.9255 43.672 26.4427 44.6763 26.6131V27.2664C43.4425 27.0676 42.553 27.8628 42.553 28.9989V34.7362H41.8643V26.5847H42.4669V26.6131Z" fill="#A3B3CC"/>
<path d="M50.6445 34.7643L47.7177 30.7312H46.943V34.7643H46.2257V24.1135H46.943V30.0496H47.7177L50.3289 26.6129H51.161L48.2916 30.4188L51.5053 34.7927H50.6445V34.7643Z" fill="#A3B3CC"/>
<path d="M5.05011 39.2806C5.05011 37.9741 4.18929 37.4912 2.95546 37.4912C1.49208 37.4912 0.688649 37.9457 0.688649 39.6782C0.688649 41.6096 1.8364 41.5812 3.50064 41.78C5.0788 41.9788 5.997 43.0013 5.997 44.5634C5.997 47.1764 4.73447 47.7729 2.86938 47.7729C0.975588 47.7729 0 46.9492 0 45.2451H0.659958C0.659958 46.5516 1.40599 47.1196 2.86938 47.1196C4.64839 47.1196 5.27965 46.4096 5.27965 44.5634C5.27965 42.6605 3.93105 42.4332 2.3242 42.2912C1.20514 42.1776 0 41.6948 0 39.7066C0 37.69 1.00428 36.8948 2.95546 36.8948C4.47623 36.8948 5.62398 37.406 5.71006 39.309H5.05011V39.2806Z" fill="#A3B3CC"/>
<path d="M7.48901 44.7338V42.5184C7.48901 40.2462 8.32113 39.5078 10.0714 39.5078C11.8217 39.5078 12.6539 40.1894 12.6539 42.5468V44.7054C12.6539 46.9492 11.8217 47.7445 10.0714 47.7445C8.32113 47.7729 7.48901 47.0912 7.48901 44.7338ZM11.9652 44.7054V42.5752C11.9652 40.8427 11.6783 40.161 10.0714 40.161C8.55068 40.161 8.17766 40.8427 8.17766 42.5468V44.677C8.17766 46.4095 8.4646 47.1196 10.0714 47.1196C11.5922 47.1196 11.9652 46.4095 11.9652 44.7054Z" fill="#A3B3CC"/>
<path d="M16.5276 47.7159C14.8347 47.8295 14.519 47.233 14.519 45.4437V37.0366H15.2077V45.4721C15.2077 46.8922 15.3799 47.091 16.5276 47.091V47.7159Z" fill="#A3B3CC"/>
<path d="M25.0211 37.6899L25.7097 37.6047V39.5076H27.4026V40.1609H25.7097V45.3869C25.7097 46.8922 26.1688 47.1763 27.4887 47.091V47.6875C25.6236 47.8579 24.9924 47.1763 24.9924 45.3869V37.6899H25.0211Z" fill="#A3B3CC"/>
<path d="M30.5303 37.4627C30.5303 38.116 29.4973 38.116 29.4973 37.4627C29.4973 36.8379 30.5303 36.8095 30.5303 37.4627ZM30.3581 47.6592H29.6695V39.5077H30.3581V47.6592Z" fill="#A3B3CC"/>
<path d="M32.2517 44.7338V42.5184C32.2517 40.2462 33.0839 39.5078 34.8342 39.5078C36.5845 39.5078 37.4166 40.1894 37.4166 42.5468V44.7054C37.4166 46.9492 36.5845 47.7445 34.8342 47.7445C33.0839 47.7729 32.2517 47.0912 32.2517 44.7338ZM36.728 44.7054V42.5752C36.728 40.8427 36.441 40.161 34.8342 40.161C33.3134 40.161 32.9404 40.8427 32.9404 42.5468V44.677C32.9404 46.4095 33.2273 47.1196 34.8342 47.1196C36.3549 47.1196 36.728 46.4095 36.728 44.7054Z" fill="#A3B3CC"/>
<path d="M46.4552 45.4153C46.4552 46.3526 46.943 47.0342 48.3777 47.0342C49.6402 47.0342 50.2715 46.4378 50.2715 45.3869C50.2715 43.91 49.095 43.8816 47.9473 43.7396C46.8569 43.5976 45.7952 43.3419 45.7952 41.6378C45.7952 40.3029 46.656 39.4792 48.3203 39.4792C50.0419 39.4792 50.7879 40.3029 50.7879 41.6094H50.0993C50.0706 40.6153 49.5828 40.1041 48.3203 40.1041C47.0578 40.1041 46.5126 40.6721 46.5126 41.6094C46.5126 43.0011 47.4882 43.0295 48.5498 43.1431C49.7263 43.3135 50.9888 43.5692 50.9888 45.3585C50.9888 46.7786 50.1567 47.6875 48.3777 47.6875C46.7995 47.6875 45.7665 47.0626 45.7665 45.3869H46.4552V45.4153Z" fill="#A3B3CC"/>
<path d="M22.1803 39.6497V44.7905C22.1803 46.4947 21.8073 47.2047 20.2865 47.2047C18.6796 47.2047 18.3927 46.4947 18.3927 44.7621V39.6213H17.704V44.7905C17.704 47.1479 18.5362 47.8296 20.2865 47.8296C22.0368 47.8296 22.8689 47.0343 22.8689 44.7905V39.6213H22.1803V39.6497Z" fill="#A3B3CC"/>
<path d="M43.5285 47.6876V42.5468C43.5285 40.8427 43.1555 40.1326 41.6347 40.1326C40.0278 40.1326 39.7409 40.8427 39.7409 42.5752V47.716H39.0522V42.5468C39.0522 40.1894 39.8844 39.5078 41.6347 39.5078C43.385 39.5078 44.2171 40.303 44.2171 42.5468V47.716H43.5285V47.6876Z" fill="#A3B3CC"/>
</g>
</g>
<defs>
<clipPath id="clip0_26_236">
<rect width="66" height="48" fill="white"/>
</clipPath>
</defs>
</svg>
