<svg width="132" height="96" viewBox="0 0 132 96" fill="none" xmlns="http://www.w3.org/2000/svg">
<g clip-path="url(#clip0_1_44)">
<path d="M73.9724 28.5729C73.6855 28.1184 73.5133 27.5504 73.5133 26.9823C73.5133 26.4143 73.6855 25.6758 73.9724 25.2214C75.5792 22.6084 78.2191 18.632 80.6867 15.2237C82.9822 11.9859 81.8345 11.0202 80.9737 10.0545C80.1129 9.14564 79.3668 8.52079 78.5634 7.95274C76.4401 6.53262 75.2923 8.748 75.2923 8.748C75.2923 8.748 66.4546 22.8356 65.0773 24.8237C64.5608 25.5622 64.3887 26.2439 64.3313 26.9255C64.3887 27.5504 64.5608 28.2888 65.0773 29.0273C66.4546 31.0155 75.5793 45.6143 75.5793 45.6143C75.5793 45.6143 76.6122 47.5456 78.5634 45.8983C79.4242 45.1598 80.0555 44.6486 80.9737 43.7965C81.9493 42.9445 83.0396 41.8084 80.6867 38.6273C78.2191 35.1622 75.5792 31.1859 73.9724 28.5729Z" fill="#56B8FF"/>
<path d="M131.303 28.5723C131.303 28.5155 131.303 28.5155 131.303 28.5723C131.245 27.6635 130.958 26.641 130.212 25.6185C128.261 22.8351 114.832 1.36287 114.832 1.36287C114.832 1.36287 113.685 -0.795717 111.045 1.64689C109.955 2.66937 110.643 1.98772 109.438 3.29423C108.176 4.65754 107.143 7.44097 110.471 11.9854C114.029 16.8706 117.702 22.4942 119.997 26.1865C120.399 26.8114 120.571 27.6635 120.571 28.4587C120.571 28.4587 120.571 28.5723 120.571 28.6291C120.571 28.6859 120.571 28.7427 120.571 28.7995C120.571 29.5948 120.399 30.4469 119.997 31.0717C117.702 34.8208 114.029 40.3877 110.471 45.2729C107.2 49.8173 108.176 52.6007 109.438 53.964C110.643 55.2706 109.955 54.5889 111.045 55.6114C113.685 58.054 114.832 55.8954 114.832 55.8954C114.832 55.8954 128.261 34.4232 130.212 31.6398C130.901 30.6173 131.245 29.5948 131.303 28.6859C131.303 28.6291 131.303 28.6291 131.303 28.5723Z" fill="#56B8FF"/>
<path d="M57.3301 49.3638H58.4205L62.4376 67.0301H62.495L64.3314 58.2253L66.6269 48.1709H68.1763L63.1836 69.5295H61.6342L59.3961 59.7023L57.904 52.2608L56.4119 59.5886L54.1164 69.5295H52.5669L47.5742 48.1709H49.1237L51.4192 58.2253L53.2556 67.0301H53.313L57.3301 49.3638Z" fill="#252525"/>
<path d="M69.5538 63.6777V59.2469C69.5538 54.7025 71.2181 53.2256 74.7187 53.2256C78.2194 53.2256 79.8836 54.5889 79.8836 59.3037V63.6209C79.8836 68.1084 78.2194 69.699 74.7187 69.699C71.2181 69.7558 69.5538 68.3925 69.5538 63.6777ZM78.5063 63.6209V59.3605C78.5063 55.8954 77.9324 54.5321 74.7187 54.5321C71.6772 54.5321 70.9311 55.8954 70.9311 59.3037V63.564C70.9311 67.0291 71.505 68.4493 74.7187 68.4493C77.7603 68.4493 78.5063 67.0291 78.5063 63.6209Z" fill="#252525"/>
<path d="M84.9338 53.2262L84.9912 55.1576C85.6798 53.8511 87.3441 52.8854 89.3526 53.2262V54.5327C86.885 54.1351 85.1059 55.7256 85.1059 57.9978V69.4724H83.7286V53.1694H84.9338V53.2262Z" fill="#252525"/>
<path d="M101.289 69.5293L95.4354 61.463H93.886V69.5293H92.4513V48.2275H93.886V60.0997H95.4354L100.658 53.2264H102.322L96.5832 60.8382L103.011 69.5861H101.289V69.5293Z" fill="#252525"/>
<path d="M10.1002 78.5607C10.1002 75.9476 8.37858 74.982 5.91092 74.982C2.98415 74.982 1.3773 75.8908 1.3773 79.3559C1.3773 83.2187 3.6728 83.1618 7.00128 83.5595C10.1576 83.9571 11.994 86.0021 11.994 89.1263C11.994 94.3524 9.46895 95.5453 5.73875 95.5453C1.95118 95.5453 0 93.8979 0 90.4896H1.31992C1.31992 93.1027 2.81199 94.2388 5.73875 94.2388C9.29678 94.2388 10.5593 92.8186 10.5593 89.1263C10.5593 85.3204 7.8621 84.866 4.6484 84.582C2.41028 84.3547 0 83.3891 0 79.4127C0 75.3796 2.00857 73.7891 5.91092 73.7891C8.95246 73.7891 11.248 74.8115 11.4201 78.6175H10.1002V78.5607Z" fill="#252525"/>
<path d="M14.978 89.4677V85.0369C14.978 80.4926 16.6423 79.0156 20.1429 79.0156C23.6435 79.0156 25.3078 80.3789 25.3078 85.0937V89.4109C25.3078 93.8985 23.6435 95.489 20.1429 95.489C16.6423 95.5458 14.978 94.1825 14.978 89.4677ZM23.9305 89.4109V85.1505C23.9305 81.6854 23.3566 80.3221 20.1429 80.3221C17.1014 80.3221 16.3553 81.6854 16.3553 85.0937V89.3541C16.3553 92.8192 16.9292 94.2393 20.1429 94.2393C23.1844 94.2393 23.9305 92.8192 23.9305 89.4109Z" fill="#252525"/>
<path d="M33.0552 95.4318C29.6693 95.659 29.0381 94.4661 29.0381 90.8874V74.0732H30.4154V90.9443C30.4154 93.7845 30.7597 94.1821 33.0552 94.1821V95.4318Z" fill="#252525"/>
<path d="M50.042 75.3804L51.4193 75.21V79.0159H54.8052V80.3224H51.4193V90.7744C51.4193 93.7851 52.3375 94.3531 54.9773 94.1827V95.3756C51.2471 95.7165 49.9846 94.3531 49.9846 90.7744V75.3804H50.042Z" fill="#252525"/>
<path d="M61.0605 74.9255C61.0605 76.232 58.9945 76.232 58.9945 74.9255C58.9945 73.6758 61.0605 73.619 61.0605 74.9255ZM60.7161 95.3184H59.3388V79.0154H60.7161V95.3184Z" fill="#252525"/>
<path d="M64.5035 89.4677V85.0369C64.5035 80.4926 66.1678 79.0156 69.6684 79.0156C73.169 79.0156 74.8333 80.3789 74.8333 85.0937V89.4109C74.8333 93.8985 73.169 95.489 69.6684 95.489C66.1678 95.5458 64.5035 94.1825 64.5035 89.4677ZM73.456 89.4109V85.1505C73.456 81.6854 72.8821 80.3221 69.6684 80.3221C66.6269 80.3221 65.8808 81.6854 65.8808 85.0937V89.3541C65.8808 92.8192 66.4547 94.2393 69.6684 94.2393C72.7099 94.2393 73.456 92.8192 73.456 89.4109Z" fill="#252525"/>
<path d="M92.9105 90.8312C92.9105 92.7057 93.8861 94.0691 96.7555 94.0691C99.2805 94.0691 100.543 92.8761 100.543 90.7744C100.543 87.8205 98.1901 87.7637 95.8947 87.4797C93.7139 87.1957 91.5906 86.6844 91.5906 83.2761C91.5906 80.6063 93.3122 78.959 96.6407 78.959C100.084 78.959 101.576 80.6063 101.576 83.2193H100.199C100.141 81.2312 99.1657 80.2087 96.6407 80.2087C94.1156 80.2087 93.0253 81.3448 93.0253 83.2193C93.0253 86.0028 94.9765 86.0596 97.0998 86.2868C99.4527 86.6276 101.978 87.1389 101.978 90.7176C101.978 93.5578 100.313 95.3756 96.7555 95.3756C93.5992 95.3756 91.5332 94.1258 91.5332 90.7744H92.9105V90.8312Z" fill="#252525"/>
<path d="M44.3605 79.299V89.5807C44.3605 92.9889 43.6145 94.4091 40.573 94.4091C37.3593 94.4091 36.7854 92.9889 36.7854 89.5238V79.2422H35.4081V89.5807C35.4081 94.2954 37.0723 95.6588 40.573 95.6588C44.0736 95.6588 45.7379 94.0682 45.7379 89.5807V79.2422H44.3605V79.299Z" fill="#252525"/>
<path d="M87.057 95.3754V85.0937C87.057 81.6854 86.3109 80.2653 83.2694 80.2653C80.0557 80.2653 79.4818 81.6854 79.4818 85.1505V95.4322H78.1045V85.0937C78.1045 80.3789 79.7687 79.0156 83.2694 79.0156C86.77 79.0156 88.4343 80.6061 88.4343 85.0937V95.4322H87.057V95.3754Z" fill="#252525"/>
</g>
<defs>
<clipPath id="clip0_1_44">
<rect width="132" height="96" fill="white"/>
</clipPath>
</defs>
</svg>
